<svg width="1440" height="694" viewBox="0 0 1440 694" fill="none" xmlns="http://www.w3.org/2000/svg">
<path d="M319.464 446.409C163.504 475.23 -16.4953 370.521 -87 314.564V694C-23.291 635.743 220.078 546.058 469.817 553.724C719.556 561.389 752.685 479.37 798.556 386.619C844.426 293.868 895.393 237.91 1159.15 235.611C1370.15 233.771 1478.97 176.077 1507 147.459V-94C1498.51 -89.4008 1468.77 -78.516 1417.81 -71.7704C1354.1 -63.3385 1326.07 -80.9689 1226.68 -57.9728C1127.29 -34.9767 1026.63 92.2685 873.732 104.533C720.831 116.798 592.138 133.661 514.413 211.082C436.688 288.502 514.413 410.381 319.464 446.409Z" fill="#A11DE7" fill-opacity="0.88"/>
<path d="M319.464 446.409C163.504 475.23 -16.4953 370.521 -87 314.564V694C-23.291 635.743 220.078 546.058 469.817 553.724C719.556 561.389 752.685 479.37 798.556 386.619C844.426 293.868 895.393 237.91 1159.15 235.611C1370.15 233.771 1478.97 176.077 1507 147.459V-94C1498.51 -89.4008 1468.77 -78.516 1417.81 -71.7704C1354.1 -63.3385 1326.07 -80.9689 1226.68 -57.9728C1127.29 -34.9767 1026.63 92.2685 873.732 104.533C720.831 116.798 592.138 133.661 514.413 211.082C436.688 288.502 514.413 410.381 319.464 446.409Z" fill="url(#paint0_linear)"/>
<defs>
<linearGradient id="paint0_linear" x1="1507" y1="23.8504" x2="274.942" y2="565.914" gradientUnits="userSpaceOnUse">
<stop stop-color="#503DFF"/>
<stop offset="1" stop-color="#A11DE7" stop-opacity="0"/>
</linearGradient>
</defs>
</svg>
